<svg enable-background="new 121 242 270 270" fill="#000000" height="270" viewBox="121 242 270 270" width="270" xmlns="http://www.w3.org/2000/svg"><path d="m256 242c-74.562 0-135 60.438-135 135s60.438 135 135 135 135-60.438 135-135-60.438-135-135-135zm0 248.906c-62.91 0-113.906-50.995-113.906-113.906 0-62.91 50.996-113.906 113.906-113.906s113.906 50.996 113.906 113.906c0 62.911-50.996 113.906-113.906 113.906z"/><path d="m202.016 408.052-.725 18.739 16.229.628.725-18.74 7.673.299.572-14.756-1.072-.041-53.76 12.697z"/><path d="m265.212 405.474c-.286 7.377-3.641 10.055-8.805 9.855-5.164-.199-8.301-3.13-8.016-10.506l.628-16.216-16.404 3.874-.413 10.68c-.64 16.526 7.7 26.305 23.634 26.922 15.935.618 25.005-8.488 25.645-25.014l.942-24.35-16.403 3.873z"/><path d="m320.451 371.739-1.008 26.081-16.083-.621 11.249-24.08-17.008 4.016-9.144 19.486-.57 14.755 30.984 1.199-.725 18.737 16.229.63.725-18.739 7.674.298.57-14.755-7.673-.297 1.185-30.583z"/><path d="m207.778 319.867-17.707.641-26.986 70.864.534 14.755.626-.022 52.661-16.681-6.602.239zm-13.706 70.383-16.084.582 14.701-38.8z"/><path d="m246.1 317.3c-15.936.575-24.3 10.335-23.703 26.861l1.557 43.03 16.069-5.09-1.432-39.561c-.267-7.379 2.878-10.299 8.042-10.485 5.165-.188 8.513 2.498 8.779 9.876l1.263 34.896 16.069-5.09-1.062-29.359c-.598-16.527-9.646-25.657-25.582-25.078z"/><path d="m309.556 347.804.438 12.134 16.069-5.091-1.419-39.209-17.706.642-19.326 50.748 16.659-5.277z"/></svg>
