<svg width="50" height="39" viewBox="0 0 50 39" fill="none" xmlns="http://www.w3.org/2000/svg">
<path d="M45.25 4.25H46.25C46.449 4.25 46.64 4.17098 46.78 4.03033C46.921 3.88968 47 3.69891 47 3.5C47 3.30109 46.921 3.11032 46.78 2.96967C46.64 2.82902 46.449 2.75 46.25 2.75H45.25V5.25M46.3 4.24687L47 5.25M49 4C49 5.65685 47.657 7 46 7C44.343 7 43 5.65685 43 4C43 2.34315 44.343 1 46 1C47.657 1 49 2.34315 49 4Z" stroke="black" stroke-width="0.6" stroke-linecap="round" stroke-linejoin="round"/>
<path d="M18.8574 0.085309C15.7834 0.746046 11.187 3.49954 8.64743 5.71678C7.40333 6.80286 7.70137 8.90384 9.18066 9.42041C12.5186 10.5859 15.991 6.03015 19.1396 5.29179C21.5573 4.72442 24.9578 7.70149 27.079 8.93962C28.7339 9.90586 31.903 11.3372 31.6282 14.2209C31.449 16.099 29.9583 16.1469 28.8408 15.5588C26.1497 14.1432 23.2557 11.5779 20.3255 11.0821C19.2591 10.9014 16.7547 11.0939 16.526 12.8275C16.2738 14.7385 20.4157 16.1684 21.5001 16.8177C26.0572 19.5454 30.7502 21.944 35.3006 24.6893C36.4804 25.4008 39.153 27.6205 40.4925 27.1208C41.4943 26.747 41.1731 24.4725 41.1731 23.5273C41.1734 19.9825 41.3255 16.7368 39.9035 13.5108C37.2444 7.47827 30.0896 5.28785 25.3172 2.50038C23.3379 1.34418 21.1503 -0.407292 18.8574 0.085309Z" fill="#FF6900"/>
<path d="M0.53591 11.3886C-0.258353 12.0801 0.0652256 14.2809 0.0652256 15.2993C0.0652256 19.4283 0.0904787 23.4425 2.46945 26.7454C5.68555 31.2103 11.5746 33.3832 15.9211 35.824C17.8012 36.8801 19.6555 38.2709 21.7937 38.1786C23.9938 38.0835 26.0184 36.429 27.9599 35.3114C29.4662 34.4446 31.9922 33.6504 33.0226 31.9734C34.3944 29.7404 31.8011 28.3205 30.3089 28.7251C27.3984 29.5147 24.7866 32.8194 21.7937 33.0766C19.4505 33.2777 16.2194 30.5721 14.1594 29.3383C12.4669 28.3245 9.19822 26.8835 9.58552 23.8918C9.858 21.7861 11.5634 22.2888 12.6912 22.8958C15.2931 24.296 18.0931 26.7243 20.9128 27.3214C21.9038 27.5314 24.8368 27.0284 24.8368 25.307C24.8368 23.5101 20.8326 22.1335 19.7383 21.4692C15.0954 18.6499 10.2896 16.2319 5.64415 13.4219C4.55538 12.7637 1.75858 10.3247 0.53591 11.3886Z" fill="#FF6900"/>
</svg>
