<svg width="170" height="41" viewBox="0 0 170 41" fill="none" xmlns="http://www.w3.org/2000/svg">
<path d="M62.9401 23.3918C62.9401 24.9998 62.3401 26.2598 61.1401 27.1718C59.9641 28.0598 58.2481 28.5038 55.9921 28.5038C54.1201 28.5038 52.5841 28.2158 51.3841 27.6398C50.2081 27.0638 49.6201 26.3798 49.6201 25.5878C49.6201 25.2278 49.7041 24.8918 49.8721 24.5798C50.0641 24.2678 50.3161 24.0278 50.6281 23.8598C51.3001 24.2918 52.0681 24.6878 52.9321 25.0478C53.7961 25.4078 54.7921 25.5878 55.9201 25.5878C58.2001 25.5878 59.3401 24.8558 59.3401 23.3918C59.3401 22.7918 59.1361 22.2998 58.7281 21.9158C58.3441 21.5318 57.7681 21.2438 57.0001 21.0518L54.4441 20.4038C52.8361 20.0438 51.6481 19.4678 50.8801 18.6758C50.1361 17.8838 49.7641 16.8638 49.7641 15.6158C49.7641 14.2238 50.3281 13.0598 51.4561 12.1238C52.6081 11.1638 54.2641 10.6838 56.4241 10.6838C57.5521 10.6838 58.5481 10.8038 59.4121 11.0438C60.3001 11.2598 60.9841 11.5718 61.4641 11.9798C61.9681 12.3638 62.2201 12.8078 62.2201 13.3118C62.2201 13.6718 62.1361 13.9958 61.9681 14.2838C61.8001 14.5718 61.5841 14.7878 61.3201 14.9318C61.0321 14.7398 60.6481 14.5478 60.1681 14.3558C59.7121 14.1398 59.1721 13.9598 58.5481 13.8158C57.9481 13.6478 57.3121 13.5638 56.6401 13.5638C55.6321 13.5638 54.8281 13.7438 54.2281 14.1038C53.6521 14.4638 53.3641 14.9678 53.3641 15.6158C53.3641 16.0958 53.5321 16.5038 53.8681 16.8398C54.2041 17.1758 54.7681 17.4398 55.5601 17.6318L57.7201 18.1358C59.4961 18.5678 60.8041 19.2158 61.6441 20.0798C62.5081 20.9198 62.9401 22.0238 62.9401 23.3918Z" fill="black"/>
<path d="M74.9644 20.6198L72.5164 18.8918L80.7244 10.8638C81.4444 10.8878 82.0204 11.0558 82.4524 11.3678C82.8844 11.6798 83.1004 12.0998 83.1004 12.6278C83.1004 13.0358 82.9564 13.4078 82.6684 13.7438C82.4044 14.0798 81.9964 14.4758 81.4444 14.9318L74.9644 20.6198ZM72.5524 19.4678L75.2524 18.0278L84.0364 26.0918C83.9644 26.7638 83.7604 27.2918 83.4244 27.6758C83.0884 28.0598 82.6204 28.2518 82.0204 28.2518C81.5644 28.2518 81.1444 28.1318 80.7604 27.8918C80.4004 27.6518 80.0284 27.3158 79.6444 26.8838L72.5524 19.4678ZM69.6004 18.3878L73.2364 18.7118V27.9278C73.0684 27.9758 72.8284 28.0358 72.5164 28.1078C72.2284 28.1798 71.9164 28.2158 71.5804 28.2158C70.9084 28.2158 70.4044 28.0958 70.0684 27.8558C69.7564 27.5918 69.6004 27.1478 69.6004 26.5238V18.3878ZM73.2364 20.5478L69.6004 20.2238V4.63579C69.7444 4.58779 69.9724 4.53979 70.2844 4.49179C70.5964 4.41979 70.9324 4.38379 71.2924 4.38379C71.9404 4.38379 72.4204 4.50379 72.7324 4.74379C73.0684 4.98379 73.2364 5.41579 73.2364 6.03979V20.5478Z" fill="black"/>
<path d="M102.621 13.7798L100.821 11.9798L102.801 8.95579C103.137 8.95579 103.449 9.01579 103.737 9.13579C104.025 9.25579 104.253 9.42379 104.421 9.63979C104.613 9.83179 104.709 10.0718 104.709 10.3598C104.709 10.5518 104.637 10.7558 104.493 10.9718L102.621 13.7798ZM93.9808 26.8478L91.7128 30.1958C91.3528 30.1958 91.0168 30.1358 90.7048 30.0158C90.4168 29.8958 90.1888 29.7278 90.0208 29.5118C89.8528 29.2958 89.7688 29.0678 89.7688 28.8278C89.7688 28.5878 89.8408 28.3598 89.9848 28.1438L91.6768 25.7318L93.9808 26.8478ZM94.5568 25.9478L93.1168 23.7518L99.5968 13.7438L101.793 14.7518L94.5568 25.9478ZM105.753 19.5758C105.753 21.3998 105.405 22.9838 104.709 24.3278C104.013 25.6478 103.029 26.6798 101.757 27.4238C100.485 28.1438 98.9968 28.5038 97.2928 28.5038C95.5648 28.5038 94.0648 28.1438 92.7928 27.4238C91.5208 26.6798 90.5368 25.6478 89.8408 24.3278C89.1448 22.9838 88.7968 21.3998 88.7968 19.5758C88.7968 17.7518 89.1448 16.1798 89.8408 14.8598C90.5608 13.5398 91.5568 12.5198 92.8288 11.7998C94.1008 11.0558 95.5888 10.6838 97.2928 10.6838C98.9728 10.6838 100.449 11.0558 101.721 11.7998C102.993 12.5198 103.977 13.5398 104.673 14.8598C105.393 16.1798 105.753 17.7518 105.753 19.5758ZM97.2928 13.5998C95.8288 13.5998 94.6408 14.1278 93.7288 15.1838C92.8168 16.2398 92.3608 17.7038 92.3608 19.5758C92.3608 21.4718 92.8048 22.9478 93.6928 24.0038C94.5808 25.0358 95.7808 25.5518 97.2928 25.5518C98.7808 25.5518 99.9688 25.0358 100.857 24.0038C101.745 22.9718 102.189 21.4958 102.189 19.5758C102.189 17.7038 101.733 16.2398 100.821 15.1838C99.9328 14.1278 98.7568 13.5998 97.2928 13.5998Z" fill="black"/>
<path d="M112.649 18.4958L116.285 18.8198V27.9278C116.141 27.9758 115.913 28.0358 115.601 28.1078C115.313 28.1798 114.989 28.2158 114.629 28.2158C113.957 28.2158 113.453 28.0958 113.117 27.8558C112.805 27.5918 112.649 27.1478 112.649 26.5238V18.4958ZM116.285 20.6198L112.649 20.3318V4.63579C112.793 4.58779 113.021 4.53979 113.333 4.49179C113.645 4.41979 113.969 4.38379 114.305 4.38379C115.001 4.38379 115.505 4.50379 115.817 4.74379C116.129 4.98379 116.285 5.41579 116.285 6.03979V20.6198Z" fill="black"/>
<path d="M129.528 20.6198L127.08 18.8918L135.288 10.8638C136.008 10.8878 136.584 11.0558 137.016 11.3678C137.448 11.6798 137.664 12.0998 137.664 12.6278C137.664 13.0358 137.52 13.4078 137.232 13.7438C136.968 14.0798 136.56 14.4758 136.008 14.9318L129.528 20.6198ZM127.116 19.4678L129.816 18.0278L138.6 26.0918C138.528 26.7638 138.324 27.2918 137.988 27.6758C137.652 28.0598 137.184 28.2518 136.584 28.2518C136.128 28.2518 135.708 28.1318 135.324 27.8918C134.964 27.6518 134.592 27.3158 134.208 26.8838L127.116 19.4678ZM124.164 18.3878L127.8 18.7118V27.9278C127.632 27.9758 127.392 28.0358 127.08 28.1078C126.792 28.1798 126.48 28.2158 126.144 28.2158C125.472 28.2158 124.968 28.0958 124.632 27.8558C124.32 27.5918 124.164 27.1478 124.164 26.5238V18.3878ZM127.8 20.5478L124.164 20.2238V4.63579C124.308 4.58779 124.536 4.53979 124.848 4.49179C125.16 4.41979 125.496 4.38379 125.856 4.38379C126.504 4.38379 126.984 4.50379 127.296 4.74379C127.632 4.98379 127.8 5.41579 127.8 6.03979V20.5478Z" fill="black"/>
<path d="M150.877 28.5038C148.549 28.5038 146.725 28.0598 145.405 27.1718C144.109 26.2598 143.461 24.9278 143.461 23.1758C143.461 21.5918 143.977 20.3798 145.009 19.5398C146.065 18.6998 147.529 18.1838 149.401 17.9918L154.441 17.4878V16.6598C154.441 15.5798 154.093 14.7998 153.397 14.3198C152.701 13.8158 151.753 13.5638 150.553 13.5638C149.593 13.5638 148.657 13.6958 147.745 13.9598C146.857 14.2238 146.065 14.5358 145.369 14.8958C145.153 14.7038 144.961 14.4758 144.793 14.2118C144.625 13.9238 144.541 13.6358 144.541 13.3478C144.541 12.5798 144.949 12.0158 145.765 11.6558C146.413 11.3438 147.169 11.1038 148.033 10.9358C148.921 10.7678 149.833 10.6838 150.769 10.6838C152.977 10.6838 154.729 11.1638 156.025 12.1238C157.345 13.0838 158.005 14.6078 158.005 16.6958V25.1198C158.005 25.6718 157.885 26.1038 157.645 26.4158C157.405 26.7038 157.081 26.9798 156.673 27.2438C156.049 27.5798 155.233 27.8678 154.225 28.1078C153.241 28.3718 152.125 28.5038 150.877 28.5038ZM150.877 25.6598C151.741 25.6598 152.485 25.5758 153.109 25.4078C153.733 25.2158 154.177 25.0358 154.441 24.8678V20.1878L150.409 20.5838C149.305 20.6798 148.465 20.9318 147.889 21.3398C147.337 21.7478 147.061 22.3358 147.061 23.1038C147.061 23.8958 147.373 24.5198 147.997 24.9758C148.645 25.4318 149.605 25.6598 150.877 25.6598Z" fill="black"/>
<path d="M110.93 40.4726C110.219 40.4726 109.624 40.2416 109.146 39.7796C108.668 39.3132 108.429 38.7126 108.429 37.9778C108.429 37.2386 108.672 36.6314 109.159 36.1562C109.651 35.6766 110.245 35.4368 110.943 35.4368C111.373 35.4368 111.774 35.5292 112.147 35.714C112.524 35.8988 112.82 36.1474 113.035 36.4598L112.423 37.0472C112.029 36.5544 111.548 36.308 110.982 36.308C110.526 36.308 110.14 36.4664 109.824 36.7832C109.513 37.1044 109.357 37.5026 109.357 37.9778C109.357 38.4486 109.51 38.838 109.818 39.146C110.125 39.454 110.511 39.608 110.976 39.608C111.572 39.608 112.062 39.3616 112.443 38.8688L113.068 39.4364C112.836 39.7488 112.531 39.9996 112.154 40.1888C111.776 40.378 111.368 40.4726 110.93 40.4726Z" fill="black"/>
<path d="M113.343 38.6048C113.343 38.0768 113.52 37.6324 113.876 37.2716C114.24 36.9064 114.698 36.7238 115.251 36.7238C115.808 36.7238 116.265 36.9064 116.62 37.2716C116.98 37.6324 117.16 38.0768 117.16 38.6048C117.16 39.1416 116.98 39.5904 116.62 39.9512C116.265 40.312 115.808 40.4924 115.251 40.4924C114.694 40.4924 114.236 40.312 113.876 39.9512C113.52 39.5904 113.343 39.1416 113.343 38.6048ZM116.297 38.6048C116.297 38.3012 116.197 38.046 115.995 37.8392C115.789 37.628 115.541 37.5224 115.251 37.5224C114.962 37.5224 114.714 37.628 114.508 37.8392C114.306 38.046 114.205 38.3012 114.205 38.6048C114.205 38.9128 114.306 39.1702 114.508 39.377C114.714 39.5882 114.962 39.6938 115.251 39.6938C115.541 39.6938 115.789 39.5882 115.995 39.377C116.197 39.1702 116.297 38.9128 116.297 38.6048Z" fill="black"/>
<path d="M122.045 36.7172C122.466 36.7172 122.812 36.8536 123.084 37.1264C123.356 37.3992 123.492 37.771 123.492 38.2418V40.4H122.63V38.4002C122.63 38.1142 122.562 37.8942 122.426 37.7402C122.295 37.5862 122.115 37.5092 121.887 37.5092C121.645 37.5092 121.448 37.5928 121.294 37.76C121.141 37.9272 121.064 38.1494 121.064 38.4266V40.4H120.209V38.4068C120.209 38.1296 120.138 37.9118 119.998 37.7534C119.862 37.5906 119.68 37.5092 119.452 37.5092C119.211 37.5092 119.011 37.595 118.853 37.7666C118.7 37.9338 118.623 38.156 118.623 38.4332V40.4H117.767V36.8162H118.61V37.331C118.71 37.1418 118.857 36.9922 119.05 36.8822C119.248 36.7722 119.463 36.7172 119.695 36.7172C119.937 36.7216 120.152 36.7788 120.34 36.8888C120.529 36.9988 120.669 37.155 120.761 37.3574C120.889 37.155 121.066 36.9988 121.294 36.8888C121.523 36.7744 121.773 36.7172 122.045 36.7172Z" fill="black"/>
<path d="M128.534 36.7172C128.955 36.7172 129.302 36.8536 129.574 37.1264C129.846 37.3992 129.982 37.771 129.982 38.2418V40.4H129.12V38.4002C129.12 38.1142 129.052 37.8942 128.916 37.7402C128.784 37.5862 128.604 37.5092 128.376 37.5092C128.135 37.5092 127.937 37.5928 127.784 37.76C127.63 37.9272 127.553 38.1494 127.553 38.4266V40.4H126.698V38.4068C126.698 38.1296 126.628 37.9118 126.487 37.7534C126.351 37.5906 126.169 37.5092 125.941 37.5092C125.7 37.5092 125.5 37.595 125.342 37.7666C125.189 37.9338 125.112 38.156 125.112 38.4332V40.4H124.256V36.8162H125.099V37.331C125.2 37.1418 125.347 36.9922 125.54 36.8822C125.737 36.7722 125.952 36.7172 126.185 36.7172C126.426 36.7216 126.641 36.7788 126.829 36.8888C127.018 36.9988 127.158 37.155 127.251 37.3574C127.378 37.155 127.556 36.9988 127.784 36.8888C128.012 36.7744 128.262 36.7172 128.534 36.7172Z" fill="black"/>
<path d="M134.181 38.5322C134.181 38.6466 134.172 38.7742 134.154 38.915H131.43C131.487 39.1702 131.608 39.3726 131.792 39.5222C131.981 39.6674 132.224 39.74 132.522 39.74C132.957 39.74 133.349 39.6168 133.7 39.3704L134.043 39.9842C133.599 40.3142 133.082 40.4792 132.489 40.4792C132.165 40.4792 131.875 40.4264 131.621 40.3208C131.371 40.2152 131.169 40.0744 131.015 39.8984C130.862 39.718 130.746 39.52 130.667 39.3044C130.592 39.0844 130.555 38.8512 130.555 38.6048C130.555 38.0592 130.726 37.6126 131.068 37.265C131.415 36.9086 131.862 36.7304 132.411 36.7304C132.924 36.7304 133.347 36.8932 133.681 37.2188C134.014 37.54 134.181 37.9778 134.181 38.5322ZM132.411 37.4498C132.16 37.4498 131.948 37.5224 131.772 37.6676C131.601 37.8128 131.487 38.0108 131.43 38.2616H133.338C133.303 38.0108 133.2 37.8128 133.029 37.6676C132.862 37.5224 132.656 37.4498 132.411 37.4498Z" fill="black"/>
<path d="M135.635 40.4H134.78V36.8162H135.602V37.3112C135.822 36.9196 136.153 36.7238 136.596 36.7238C136.745 36.7238 136.888 36.748 137.024 36.7964L136.951 37.6214C136.798 37.573 136.66 37.5488 136.537 37.5488C136.261 37.5488 136.041 37.6434 135.879 37.8326C135.717 38.0174 135.635 38.2902 135.635 38.651V40.4Z" fill="black"/>
<path d="M139.002 40.4792C138.453 40.4792 137.999 40.3032 137.64 39.9512C137.289 39.5992 137.113 39.1504 137.113 38.6048C137.113 38.0592 137.291 37.6104 137.646 37.2584C138.006 36.9064 138.467 36.7304 139.028 36.7304C139.397 36.7304 139.728 36.8184 140.022 36.9944C140.32 37.166 140.542 37.4058 140.686 37.7138L139.989 38.09C139.761 37.7116 139.445 37.5224 139.041 37.5224C138.734 37.5224 138.477 37.6258 138.271 37.8326C138.069 38.035 137.969 38.2924 137.969 38.6048C137.969 38.9128 138.067 39.1702 138.265 39.377C138.462 39.5838 138.712 39.6872 139.015 39.6872C139.212 39.6872 139.399 39.6366 139.574 39.5354C139.754 39.4298 139.888 39.2934 139.976 39.1262L140.673 39.5354C140.515 39.8258 140.287 40.0568 139.989 40.2284C139.695 40.3956 139.366 40.4792 139.002 40.4792Z" fill="black"/>
<path d="M144.619 38.5322C144.619 38.6466 144.61 38.7742 144.593 38.915H141.868C141.925 39.1702 142.046 39.3726 142.23 39.5222C142.419 39.6674 142.662 39.74 142.961 39.74C143.395 39.74 143.788 39.6168 144.139 39.3704L144.481 39.9842C144.038 40.3142 143.52 40.4792 142.928 40.4792C142.603 40.4792 142.314 40.4264 142.059 40.3208C141.809 40.2152 141.607 40.0744 141.454 39.8984C141.3 39.718 141.184 39.52 141.105 39.3044C141.03 39.0844 140.993 38.8512 140.993 38.6048C140.993 38.0592 141.164 37.6126 141.506 37.265C141.853 36.9086 142.3 36.7304 142.849 36.7304C143.362 36.7304 143.786 36.8932 144.119 37.2188C144.452 37.54 144.619 37.9778 144.619 38.5322ZM142.849 37.4498C142.599 37.4498 142.386 37.5224 142.211 37.6676C142.039 37.8128 141.925 38.0108 141.868 38.2616H143.777C143.742 38.0108 143.639 37.8128 143.467 37.6676C143.301 37.5224 143.095 37.4498 142.849 37.4498Z" fill="black"/>
<path d="M150.134 40.4H146.903V35.5226H150.134V36.3674H147.805V37.5158H149.957V38.354H147.805V39.5552H150.134V40.4Z" fill="black"/>
<path d="M153.498 37.2716V35.384H154.353V40.4H153.518V39.9314C153.219 40.301 152.84 40.4858 152.379 40.4858C151.866 40.4858 151.443 40.3076 151.109 39.9512C150.771 39.586 150.602 39.1372 150.602 38.6048C150.602 38.0812 150.771 37.6368 151.109 37.2716C151.451 36.9108 151.873 36.7304 152.373 36.7304C152.829 36.7304 153.204 36.9108 153.498 37.2716ZM152.498 39.7004C152.809 39.7004 153.061 39.5948 153.254 39.3836C153.448 39.168 153.544 38.9084 153.544 38.6048C153.544 38.3012 153.445 38.0438 153.248 37.8326C153.059 37.6214 152.809 37.5158 152.498 37.5158C152.186 37.5158 151.936 37.6214 151.747 37.8326C151.554 38.0482 151.458 38.3056 151.458 38.6048C151.458 38.9084 151.554 39.168 151.747 39.3836C151.936 39.5948 152.186 39.7004 152.498 39.7004Z" fill="black"/>
<path d="M155.616 36.3872C155.458 36.3872 155.326 36.3366 155.221 36.2354C155.116 36.1342 155.063 36.0044 155.063 35.846C155.063 35.692 155.116 35.5644 155.221 35.4632C155.331 35.3576 155.462 35.3048 155.616 35.3048C155.769 35.3048 155.897 35.3576 155.997 35.4632C156.103 35.5644 156.155 35.692 156.155 35.846C156.155 36.0044 156.103 36.1342 155.997 36.2354C155.897 36.3366 155.769 36.3872 155.616 36.3872ZM156.037 36.8162V40.4H155.175V36.8162H156.037Z" fill="black"/>
<path d="M159.082 39.5156L159.352 40.1888C159.071 40.3868 158.726 40.4858 158.318 40.4858C157.502 40.4858 157.094 40.0194 157.094 39.0866V37.5422H156.502V36.8162H157.108V35.549H157.957V36.8162H159.154V37.5422H157.957V39.0536C157.957 39.4848 158.13 39.7004 158.476 39.7004C158.678 39.7004 158.88 39.6388 159.082 39.5156Z" fill="black"/>
<path d="M160.195 36.3872C160.037 36.3872 159.905 36.3366 159.8 36.2354C159.695 36.1342 159.642 36.0044 159.642 35.846C159.642 35.692 159.695 35.5644 159.8 35.4632C159.91 35.3576 160.041 35.3048 160.195 35.3048C160.348 35.3048 160.476 35.3576 160.576 35.4632C160.682 35.5644 160.734 35.692 160.734 35.846C160.734 36.0044 160.682 36.1342 160.576 36.2354C160.476 36.3366 160.348 36.3872 160.195 36.3872ZM160.616 36.8162V40.4H159.754V36.8162H160.616Z" fill="black"/>
<path d="M161.206 38.6048C161.206 38.0768 161.384 37.6324 161.739 37.2716C162.103 36.9064 162.562 36.7238 163.115 36.7238C163.672 36.7238 164.128 36.9064 164.483 37.2716C164.843 37.6324 165.023 38.0768 165.023 38.6048C165.023 39.1416 164.843 39.5904 164.483 39.9512C164.128 40.312 163.672 40.4924 163.115 40.4924C162.557 40.4924 162.099 40.312 161.739 39.9512C161.384 39.5904 161.206 39.1416 161.206 38.6048ZM164.161 38.6048C164.161 38.3012 164.06 38.046 163.858 37.8392C163.652 37.628 163.404 37.5224 163.115 37.5224C162.825 37.5224 162.577 37.628 162.371 37.8392C162.169 38.046 162.068 38.3012 162.068 38.6048C162.068 38.9128 162.169 39.1702 162.371 39.377C162.577 39.5882 162.825 39.6938 163.115 39.6938C163.404 39.6938 163.652 39.5882 163.858 39.377C164.06 39.1702 164.161 38.9128 164.161 38.6048Z" fill="black"/>
<path d="M166.486 40.4H165.631V36.8162H166.473V37.3178C166.57 37.133 166.717 36.9878 166.914 36.8822C167.111 36.7766 167.339 36.7238 167.598 36.7238C167.989 36.7238 168.32 36.8536 168.592 37.1132C168.864 37.3728 169 37.7402 169 38.2154V40.4H168.138V38.453C168.138 38.1582 168.068 37.9272 167.927 37.76C167.787 37.5928 167.596 37.5092 167.355 37.5092C167.1 37.5092 166.892 37.5994 166.73 37.7798C166.567 37.9558 166.486 38.1846 166.486 38.4662V40.4Z" fill="black"/>
<path fill-rule="evenodd" clip-rule="evenodd" d="M92.1046 35.4538C92.1916 35.3361 92.3221 35.2743 92.496 35.2619C92.8128 35.2372 92.993 35.3855 93.0365 35.7075C93.2291 37.0007 93.4403 38.0962 93.6639 38.9935L95.0245 36.413C95.1021 36.2659 95.1919 36.1624 95.2939 36.1024C95.355 36.0666 95.4205 36.0462 95.4904 36.0416C95.7637 36.023 95.9315 36.1964 95.9998 36.5616C96.1551 37.3845 96.3539 38.0838 96.5901 38.678C96.7515 37.1061 97.025 35.9736 97.4101 35.2743C97.5033 35.101 97.6399 35.0144 97.8201 35.0021C97.963 34.9897 98.0935 35.033 98.2115 35.1257C98.3296 35.2187 98.3917 35.3361 98.4041 35.4786C98.4103 35.5898 98.3917 35.6828 98.342 35.7755C98.0997 36.2211 97.9008 36.9698 97.7394 38.0096C97.584 39.0182 97.5281 39.8044 97.5654 40.3674C97.5778 40.5222 97.553 40.6585 97.4909 40.7759C97.4163 40.9122 97.3045 40.9863 97.1616 40.9987C97 41.011 96.8324 40.9369 96.6708 40.7697C96.093 40.1817 95.6333 39.3032 95.2978 38.1332C94.894 38.9255 94.5958 39.5195 94.4033 39.9156C94.0367 40.6149 93.726 40.974 93.4651 40.9925C93.39 40.9981 93.3197 40.9724 93.254 40.9159C93.173 40.846 93.0988 40.7292 93.0303 40.5654C92.7134 39.7549 92.3718 38.1892 92.0052 35.8682C91.9866 35.7075 92.0176 35.5651 92.1046 35.4538ZM105.462 36.4254C105.238 36.0354 104.909 35.8002 104.467 35.7075C104.349 35.6828 104.238 35.6705 104.132 35.6705C103.536 35.6705 103.051 35.9798 102.672 36.5987C102.349 37.1246 102.188 37.7065 102.188 38.3437C102.188 38.8205 102.287 39.2287 102.486 39.5692C102.709 39.9592 103.039 40.1943 103.48 40.287C103.598 40.3118 103.71 40.3241 103.815 40.3241C104.418 40.3241 104.902 40.0148 105.275 39.3959C105.598 38.8637 105.76 38.2819 105.76 37.6444C105.76 37.1617 105.66 36.7594 105.462 36.4254ZM104.722 37.6815C104.722 37.8425 104.704 37.9973 104.679 38.1394C104.592 38.5479 104.436 38.8514 104.207 39.0556C104.026 39.2163 103.859 39.2846 103.703 39.2534C103.554 39.2225 103.43 39.0927 103.337 38.8514C103.262 38.6595 103.225 38.4676 103.225 38.2881C103.225 38.1336 103.237 37.9787 103.269 37.8363C103.324 37.5826 103.43 37.3351 103.598 37.0999C103.803 36.7968 104.02 36.6729 104.244 36.7161C104.393 36.747 104.517 36.8771 104.61 37.1185C104.685 37.3104 104.722 37.5023 104.722 37.6815ZM100.572 35.7075C101.007 35.8002 101.343 36.0354 101.566 36.4254C101.765 36.7594 101.865 37.1617 101.865 37.6444C101.865 38.2819 101.703 38.8637 101.38 39.3959C101.007 40.0148 100.523 40.3241 99.9199 40.3241C99.8143 40.3241 99.7025 40.3118 99.5844 40.287C99.1434 40.1943 98.8141 39.9592 98.5905 39.5692C98.3917 39.2287 98.2922 38.8205 98.2922 38.3437C98.2922 37.7065 98.4538 37.1246 98.7768 36.5987C99.1558 35.9798 99.6404 35.6705 100.237 35.6705C100.342 35.6705 100.454 35.6828 100.572 35.7075ZM100.311 39.0556C100.541 38.8514 100.697 38.5479 100.783 38.1394C100.815 37.9973 100.827 37.8425 100.827 37.6815C100.827 37.5684 100.812 37.4506 100.783 37.3308C100.765 37.2606 100.743 37.1895 100.715 37.1185C100.665 36.9878 100.605 36.8895 100.537 36.8221C100.48 36.7653 100.417 36.7304 100.349 36.7161C100.125 36.6729 99.9075 36.7968 99.7025 37.0999C99.5347 37.3351 99.4291 37.5826 99.3732 37.8363C99.3421 37.9787 99.3297 38.1336 99.3297 38.2881C99.3297 38.3996 99.3441 38.5158 99.3728 38.6341C99.3903 38.7061 99.4132 38.7788 99.4416 38.8514C99.5347 39.0927 99.659 39.2225 99.8081 39.2534C99.9634 39.2846 100.131 39.2163 100.311 39.0556Z" fill="#FF6900"/>
<path d="M165.25 4.25H166.25C166.449 4.25 166.64 4.17098 166.78 4.03033C166.921 3.88968 167 3.69891 167 3.5C167 3.30109 166.921 3.11032 166.78 2.96967C166.64 2.82902 166.449 2.75 166.25 2.75H165.25V5.25M166.3 4.24687L167 5.25M169 4C169 5.65685 167.657 7 166 7C164.343 7 163 5.65685 163 4C163 2.34315 164.343 1 166 1C167.657 1 169 2.34315 169 4Z" stroke="black" stroke-width="0.6" stroke-linecap="round" stroke-linejoin="round"/>
<path d="M18.8574 0.085309C15.7834 0.746046 11.187 3.49954 8.64738 5.71678C7.40328 6.80286 7.70132 8.90384 9.18061 9.42041C12.5186 10.5859 15.991 6.03015 19.1396 5.29179C21.5573 4.72442 24.9578 7.70149 27.079 8.93962C28.7339 9.90586 31.903 11.3372 31.6282 14.2209C31.449 16.099 29.9583 16.1469 28.8408 15.5588C26.1497 14.1432 23.2557 11.5779 20.3255 11.0821C19.2591 10.9014 16.7547 11.0939 16.526 12.8275C16.2738 14.7385 20.4157 16.1684 21.5001 16.8177C26.0572 19.5454 30.7502 21.944 35.3006 24.6893C36.4804 25.4008 39.153 27.6205 40.4925 27.1208C41.4943 26.747 41.1731 24.4725 41.1731 23.5273C41.1734 19.9825 41.3255 16.7368 39.9035 13.5108C37.2444 7.47827 30.0896 5.28785 25.3172 2.50038C23.3379 1.34418 21.1503 -0.407292 18.8574 0.085309Z" fill="#FF6900"/>
<path d="M0.53591 11.3887C-0.258353 12.0802 0.0652256 14.281 0.0652256 15.2994C0.0652256 19.4284 0.0904787 23.4426 2.46945 26.7455C5.68555 31.2104 11.5746 33.3833 15.9211 35.8241C17.8012 36.8802 19.6555 38.271 21.7937 38.1787C23.9938 38.0836 26.0184 36.4291 27.9599 35.3115C29.4662 34.4447 31.9922 33.6505 33.0226 31.9735C34.3944 29.7405 31.8011 28.3206 30.3089 28.7252C27.3984 29.5148 24.7866 32.8195 21.7937 33.0767C19.4505 33.2778 16.2194 30.5722 14.1594 29.3384C12.4669 28.3246 9.19822 26.8836 9.58552 23.8919C9.858 21.7862 11.5634 22.2889 12.6912 22.8959C15.2931 24.2961 18.0931 26.7244 20.9128 27.3215C21.9038 27.5315 24.8368 27.0285 24.8368 25.3071C24.8368 23.5102 20.8326 22.1336 19.7383 21.4693C15.0954 18.65 10.2896 16.232 5.64415 13.422C4.55538 12.7638 1.75858 10.3248 0.53591 11.3887Z" fill="#FF6900"/>
</svg>
